<?xml version="1.0" encoding="UTF-8" standalone="yes"?>
<!-- Created with sK1/UniConvertor (http://sk1project.org/) -->
<svg xmlns="http://www.w3.org/2000/svg" xmlns:xlink="http://www.w3.org/1999/xlink"
  width="595.276pt" height="841.89pt" viewBox="0 0 595.276 841.89"
  fill-rule="evenodd">
<g>
<g>
<g>
<path style="stroke:none; fill:#2c2c2b" d="M 169.247 445.913C 169.247 520.533 230.625 581.268 305.993 581.268C 381.374 581.268 442.753 520.533 442.753 445.913C 442.753 371.177 381.374 310.511 305.993 310.511C 230.625 310.511 169.247 371.177 169.247 445.913zM 174.919 445.913C 174.919 374.235 233.665 315.988 305.993 315.988C 378.372 315.988 437.13 374.235 437.13 445.913C 437.13 517.532 378.372 575.733 305.993 575.733C 233.665 575.733 174.919 517.532 174.919 445.913z"/>
<path style="stroke:none; fill:#2c2c2b" d="M 228.796 533.126L 230.625 530.964L 232.466 528.58C 233.765 526.847 234.864 525.568 236.001 524.835C 236.941 524.091 238.09 523.65 239.412 523.719C 240.562 523.719 241.587 523.951 242.552 524.289C 243.466 524.696 244.257 525.16 245.16 525.661C 246.667 526.917 247.78 528.265 248.547 529.719C 249.399 531.266 249.448 532.429 249.128 533.313C 248.78 534.162 248.547 534.778 248.41 535.046C 248.286 535.289 248.052 535.522 248.052 535.719C 247.965 535.976 247.78 536.091 247.669 536.301C 247.459 536.51 247.422 536.627 247.335 536.708L 246.828 537.418L 244.702 540.174L 242.601 543.022L 240.647 545.604L 239.969 546.674C 239.821 546.464 239.475 546.15 239.054 545.766C 238.61 545.476 238.387 545.197 238.251 545.08C 237.597 544.627 236.941 544.267 236.212 543.894L 237.225 542.86C 237.62 542.277 238.387 541.464 239.313 540.359C 240.265 539.196 240.983 538.313 241.464 537.685L 242.181 536.65C 242.663 536.057 243.108 535.522 243.54 534.952C 243.911 534.417 244.257 533.777 244.603 533.232C 244.913 532.545 245.16 531.998 245.333 531.522C 245.419 531.08 245.419 530.417 245.333 529.452C 245.16 528.58 244.48 527.754 243.466 526.917C 242.44 526.126 241.328 525.661 240.463 525.661C 239.573 525.661 238.696 525.858 237.868 526.416C 237.003 526.917 236.212 527.545 235.581 528.265C 235.05 529.045 234.209 529.952 233.381 531.08C 232.862 531.917 232.02 532.964 230.971 534.475C 229.797 536.057 229.005 537.254 228.413 537.987C 228.128 537.812 227.931 537.65 227.906 537.464C 227.757 537.418 227.56 537.254 227.264 536.975C 227.077 536.86 226.893 536.708 226.78 536.627C 226.657 536.627 226.472 536.488 226.163 536.301C 226.657 535.719 227.077 535.289 227.56 534.813C 227.906 534.301 228.289 533.697 228.796 533.126z"/>
<path style="stroke:none; fill:#2c2c2b" d="M 233.048 515.939L 233.665 516.823C 233.888 517.067 234.333 517.37 234.58 517.579C 233.171 518.824 231.452 520.137 229.636 521.615C 227.684 523.278 225.891 524.719 224.247 526.266L 220.725 529.382L 219.835 530.242C 219.612 529.824 219.291 529.51 219.093 529.207C 218.834 529.045 218.573 528.661 218.105 528.428C 218.228 527.417 218.439 525.568 218.636 523.138C 218.908 520.741 219.093 518.382 219.291 516.044C 219.612 513.764 219.749 511.882 219.835 510.381L 215.275 514.579L 212.864 516.719C 212.655 516.927 212.234 517.37 211.727 517.905C 211.148 518.474 210.763 518.847 210.466 519.149L 210.034 519.451C 209.86 519.195 209.823 519.056 209.713 518.94C 209.489 518.824 209.392 518.602 209.318 518.474C 209.218 518.382 209.156 518.242 208.822 518.044C 208.601 517.905 208.452 517.73 208.39 517.579L 209.589 516.567C 209.86 516.312 210.466 516.044 211.148 515.428C 211.814 514.893 212.234 514.521 212.443 514.393C 213.062 513.764 213.853 513.231 214.594 512.497C 215.374 511.882 216.016 511.358 216.571 510.904L 218.685 508.998L 223.283 505.009L 223.394 505.311C 223.579 505.59 223.666 505.776 223.852 505.962C 224.001 506.149 224.421 506.45 224.717 506.706C 224.421 508.858 224.247 510.508 224.001 511.858C 223.876 513.079 223.691 514.369 223.592 515.649C 223.518 516.893 223.394 518.474 223.086 520.44L 222.727 524.835L 225.706 522.394L 227.646 520.741C 228.066 520.289 228.919 519.51 230.118 518.382C 231.378 517.091 232.269 516.242 232.9 515.672L 233.048 515.939z"/>
<path style="stroke:none; fill:#2c2c2b" d="M 205.04 504.951C 205.51 504.543 206.362 504.136 207.413 503.52C 208.601 502.951 209.318 502.439 209.86 502.136C 210.491 501.835 211.331 501.381 212.345 500.659C 213.383 499.892 214.335 499.392 214.929 498.962C 215.275 498.833 215.72 498.473 216.571 497.938C 217.302 497.381 218.068 496.915 218.439 496.672C 218.573 496.915 218.784 497.287 218.995 497.81C 219.216 498.368 219.439 498.497 219.439 498.648C 219.835 499.311 220.292 499.892 220.836 500.718C 219.835 501.276 218.29 502.136 216.126 503.194C 213.901 504.451 212.443 505.311 211.727 505.776L 210.318 506.45L 207.228 508.415C 206.783 508.683 206.277 508.963 205.893 509.265C 205.411 509.567 204.769 509.985 204.052 510.544C 203.855 510.276 203.669 509.869 203.434 509.451C 203.187 508.963 203.014 508.648 203.014 508.544C 202.865 508.207 202.569 507.869 202.21 507.392C 201.95 507.032 201.715 506.777 201.568 506.637C 201.95 506.45 202.606 506.149 203.434 505.776C 204.175 505.311 204.769 505.009 205.04 504.951z"/>
<path style="stroke:none; fill:#2c2c2b" d="M 212.443 485.031C 212.593 485.287 212.593 485.426 212.691 485.74C 212.716 485.996 212.79 486.113 212.79 486.228C 213 486.647 213.224 487.019 213.383 487.298C 211.9 488.915 210.132 490.532 208.304 492.38C 206.362 494.182 204.917 495.578 204.052 496.636C 203.138 497.52 201.358 499.392 198.774 502.102C 198.515 501.753 198.329 501.288 198.155 500.718C 197.972 500.206 197.921 499.881 197.786 499.788C 197.501 499.055 197.106 498.368 196.723 497.52C 198.255 496.346 200.034 494.636 201.95 492.822C 203.978 490.833 205.856 489.043 207.599 487.241C 204.769 487.298 202.05 487.508 199.726 487.624C 197.353 487.717 194.917 487.961 192.558 488.194L 192.471 487.881C 192.311 487.624 192.224 487.241 192.075 487.019C 191.989 486.693 191.717 486.228 191.421 485.949C 193.744 485.845 196.116 485.752 198.416 485.74C 200.702 485.67 203.187 485.601 205.585 485.426C 208.217 485.357 210.406 485.229 212.443 485.031z"/>
<path style="stroke:none; fill:#2c2c2b" d="M 189.999 480.194C 189.863 479.728 189.69 479.019 189.504 478.054C 189.442 477.054 189.134 476.356 189.121 475.914C 188.861 474.938 188.516 473.809 188.183 472.333C 187.688 470.891 187.501 469.995 187.501 469.728C 187.823 469.728 188.183 469.612 188.639 469.6C 188.824 469.461 188.974 469.461 189.121 469.461C 189.344 469.356 189.442 469.322 189.442 469.286L 189.825 469.193C 189.949 469.798 190.245 470.891 190.333 472.286C 190.679 473.728 190.852 474.728 190.999 475.484L 193.929 474.728L 196.92 474.066L 195.165 467.926C 195.56 467.88 195.782 467.88 196.055 467.88C 196.216 467.774 196.39 467.774 196.562 467.774C 196.784 467.716 196.92 467.635 197.106 467.576C 197.328 467.53 197.353 467.437 197.501 467.344C 197.65 467.88 197.921 468.728 198.155 469.728C 198.329 470.891 198.416 471.694 198.515 472.263L 198.923 473.658L 202.382 472.739L 205.893 471.786C 205.374 469.926 204.769 467.88 203.978 465.647C 204.36 465.6 204.769 465.554 205.189 465.437C 205.374 465.437 205.51 465.356 205.585 465.309C 205.856 465.286 205.893 465.216 205.967 465.216L 206.277 465.042C 206.449 465.6 206.746 466.425 206.783 467.576C 207.055 468.659 207.277 469.461 207.413 469.995L 208.304 473.182L 208.958 475.554L 207.29 475.984L 202.21 477.054L 197.972 478.054L 194.732 478.868C 194.028 479.019 193.088 479.24 192.075 479.635C 190.963 479.961 190.333 480.124 190.333 480.124L 189.999 480.194z"/>
<path style="stroke:none; fill:#2c2c2b" d="M 197.786 456.867L 196.326 457.727C 196.216 457.786 196.216 457.89 196.116 457.89C 196.216 457.983 196.326 458.018 196.376 458.018L 201.395 457.727L 202.21 457.646C 202.606 457.646 203.187 457.646 203.855 457.541C 204.497 457.309 204.917 457.309 205.189 457.309C 205.189 457.646 205.189 458.018 205.189 458.588C 205.189 459.169 205.189 459.483 205.189 459.658C 205.189 459.948 205.276 460.344 205.374 460.844C 205.374 461.414 205.411 461.716 205.411 461.844L 204.904 461.844L 203.014 461.844C 202.148 461.844 201.023 461.89 199.726 461.89C 198.329 461.89 197.625 461.89 197.353 461.89L 192.224 462.204C 191.445 462.309 190.333 462.438 188.9 462.471C 187.501 462.67 186.364 462.67 185.846 462.786L 185.846 460.844C 185.834 460.227 185.834 459.483 185.784 458.809C 185.647 458.181 185.562 457.541 185.562 456.867C 185.488 455.553 185.488 454.599 185.488 454.076C 185.488 453.494 185.647 452.727 186.032 452.146C 186.364 451.309 186.872 450.785 187.501 450.412C 188.183 449.983 188.974 449.715 189.949 449.611C 191.382 449.564 192.558 449.901 193.423 450.658C 194.387 451.309 194.967 452.355 195.314 453.715C 196.562 452.913 197.972 451.994 199.726 450.785C 201.358 449.564 202.507 448.797 203.138 448.412L 204.695 447.262C 204.695 447.611 204.695 448.099 204.695 448.797C 204.695 449.355 204.695 449.715 204.695 449.75C 204.695 450.552 204.769 451.402 204.917 452.355L 199.268 455.821L 197.786 456.867zM 190.679 458.274L 192.94 458.181L 194.967 458.053C 194.967 457.89 194.967 457.727 194.917 457.309C 194.807 454.995 193.423 453.797 190.679 453.913C 190.245 453.913 189.616 454.076 188.974 454.262C 188.269 454.495 187.823 454.785 187.501 455.46C 187.316 455.914 187.144 456.727 187.292 457.727L 187.316 458.413L 190.679 458.274z"/>
<path style="stroke:none; fill:#2c2c2b" d="M 189.542 435.261C 188.824 435.517 188.183 435.901 187.688 436.471C 187.292 436.936 187.021 437.599 186.972 438.412C 186.972 438.923 186.972 439.389 187.082 439.621C 187.144 439.889 187.354 440.344 187.823 440.809C 188.183 441.285 188.824 441.482 189.504 441.61C 190.333 441.727 191.273 441.11 192.075 439.889C 192.792 438.843 193.534 437.646 194.387 436.319C 195.165 435.063 195.906 434.25 196.562 434.052C 197.192 433.82 197.786 433.645 198.155 433.575C 198.688 433.552 199.133 433.552 199.578 433.575C 199.948 433.575 200.38 433.692 200.826 433.866C 201.358 434.029 201.95 434.25 202.382 434.505C 202.865 434.715 203.384 435.18 203.756 435.575C 204.175 436.145 204.497 436.726 204.769 437.424C 205.04 438.111 205.276 438.738 205.374 439.342C 205.374 439.889 205.374 440.564 205.374 441.285C 205.374 442.122 205.189 442.924 204.917 443.739C 204.695 444.483 204.36 445.203 203.978 445.866C 203.038 445.471 202.382 445.296 201.95 445.203C 201.517 444.983 200.999 444.901 200.38 444.75L 200.38 444.239C 201.358 444.134 202.148 443.739 202.704 442.994C 203.286 442.39 203.607 441.482 203.607 440.54C 203.669 439.587 203.544 438.843 203.014 438.226C 202.606 437.47 201.95 437.145 200.999 437.087C 200.504 437.087 200.097 437.145 199.726 437.249C 199.454 437.47 199.034 437.668 198.774 438.064C 198.329 438.517 197.972 439.006 197.65 439.528C 197.353 439.889 197.106 440.471 196.784 440.936C 196.562 441.389 196.326 441.832 196.055 442.122C 195.746 442.564 195.437 442.855 195.165 443.239C 194.807 443.832 194.126 444.285 193.423 444.657C 192.569 444.901 191.717 444.983 190.852 444.936C 189.863 444.901 188.974 444.657 188.269 444.285C 187.65 443.959 187.082 443.448 186.501 442.669C 185.97 441.901 185.562 441.227 185.488 440.564C 185.278 439.889 185.216 439.064 185.278 438.226C 185.278 437.424 185.488 436.68 185.647 436.052C 185.846 435.388 186.23 434.633 186.687 434.052L 186.872 433.82C 187.316 434.029 187.688 434.145 188.183 434.389C 188.639 434.505 188.974 434.633 189.542 434.865L 189.542 435.261z"/>
<path style="stroke:none; fill:#2c2c2b" d="M 191.273 424.238C 191.864 424.377 192.792 424.516 194.028 424.726C 195.165 425.005 196.116 425.133 196.759 425.202C 197.353 425.342 198.329 425.447 199.677 425.645C 200.999 425.796 201.95 425.958 202.606 425.971C 202.927 426.017 203.607 426.121 204.572 426.214C 205.585 426.33 206.277 426.424 206.783 426.505C 206.783 426.772 206.746 427.191 206.61 427.749C 206.449 428.191 206.362 428.47 206.277 428.691C 206.264 429.331 206.19 430.179 206.091 431.121C 205.04 430.901 203.286 430.644 200.826 430.098C 198.329 429.598 196.723 429.226 195.782 429.063L 194.3 428.866L 190.679 428.424C 190.136 428.319 189.542 428.191 189.121 428.122C 188.516 428.074 187.823 428.005 186.823 427.958C 186.872 427.563 186.972 427.238 187.144 426.644C 187.292 426.121 187.316 425.853 187.316 425.726C 187.354 425.342 187.501 425.005 187.501 424.458C 187.501 423.889 187.501 423.481 187.501 423.435C 187.96 423.481 188.639 423.667 189.442 423.785C 190.333 424.098 190.963 424.203 191.273 424.238z"/>
<path style="stroke:none; fill:#2c2c2b" d="M 190.482 412.249L 191.382 409.562C 191.421 409.132 191.667 408.771 191.864 408.074C 192.075 407.458 192.311 406.911 192.471 406.585C 192.855 405.527 193.212 404.829 193.324 404.562C 193.484 404.213 193.843 403.748 194.387 403.19C 194.917 402.736 195.252 402.26 195.56 401.992C 195.943 401.759 196.562 401.48 197.353 401.143C 198.329 400.875 199.268 400.632 200.443 400.632C 201.568 400.632 202.865 400.875 204.052 401.213C 205.51 401.759 206.783 402.457 207.796 403.365C 208.822 404.353 209.589 405.423 210.257 406.76C 210.825 408.167 211.148 409.446 211.097 410.597C 211.048 411.772 210.763 413.028 210.257 414.47C 210.034 414.947 209.823 415.784 209.489 416.632C 209.169 417.609 208.822 418.33 208.661 418.69L 208.452 419.412L 207.649 421.738C 206.362 421.331 204.572 420.621 202.21 419.83C 199.923 418.865 198.663 418.389 198.329 418.33L 195.598 417.353L 191.667 416.167L 189.134 415.493L 190.482 412.249zM 208.217 415.191C 208.661 413.877 208.921 412.748 208.822 411.831C 208.822 410.947 208.452 409.923 207.796 409.132C 207.142 408.167 206.277 407.492 205.411 406.911C 204.533 406.342 203.544 405.83 202.382 405.516C 201.517 405.155 200.443 404.922 199.38 404.864C 198.329 404.829 197.353 405.027 196.425 405.423C 195.56 405.725 194.807 406.342 194.3 407.015C 193.744 407.795 193.324 408.771 192.94 409.784C 192.855 410.028 192.73 410.33 192.705 410.69C 192.569 411.167 192.471 411.469 192.36 411.679C 194.238 412.318 195.782 412.947 197.106 413.458C 198.44 413.899 200.034 414.446 201.95 415.144C 203.756 415.784 205.04 416.225 205.856 416.528L 207.599 417.086L 208.217 415.191z"/>
<path style="stroke:none; fill:#2c2c2b" d="M 214.558 402.76L 211.468 398.481C 209.86 396.364 208.304 394.19 206.783 392.143C 205.276 390.143 203.607 388.12 201.95 386.049C 202.148 385.945 202.21 385.864 202.382 385.689C 202.569 385.492 202.606 385.398 202.606 385.317C 202.767 385.014 202.865 384.887 202.927 384.77C 203.014 384.596 203.014 384.48 203.138 384.236L 203.607 384.375C 205.893 384.77 208.217 385.212 210.491 385.572C 212.79 385.945 214.818 386.317 216.597 386.527C 218.228 386.863 220.552 387.166 223.394 387.643L 223.691 387.643L 223.876 387.783C 223.852 388.062 223.579 388.515 223.283 388.887C 222.913 389.411 222.691 389.631 222.652 389.805C 222.468 390.003 222.295 390.213 222.196 390.41C 222.048 390.655 221.875 391.085 221.515 391.817C 220.106 391.48 218.97 391.12 218.216 391.003C 217.412 390.794 216.571 390.655 215.533 390.492L 213.853 393.039L 212.024 396.038L 212.345 396.434C 213.224 397.329 213.901 398.109 214.446 398.818C 215.102 399.562 215.583 400.166 216.126 400.632C 215.88 401.004 215.72 401.179 215.533 401.387C 215.435 401.585 215.374 401.62 215.324 401.679C 215.102 402.085 214.941 402.457 214.818 402.9L 214.558 402.76zM 211.048 394.574L 213.693 390.143C 211.468 389.805 209.169 389.306 206.746 388.887C 207.413 389.91 208.217 390.794 208.784 391.736C 209.392 392.491 210.034 393.445 210.825 394.329L 211.048 394.574z"/>
<path style="stroke:none; fill:#2c2c2b" d="M 214.237 369.456L 216.264 367.317C 216.486 367.026 216.857 366.734 217.302 366.293C 217.796 365.804 218.216 365.385 218.439 365.153C 219.291 364.386 219.835 363.92 220.194 363.711C 220.527 363.513 220.997 363.13 221.701 362.932C 222.295 362.595 222.913 362.432 223.394 362.327C 223.691 362.258 224.421 362.258 225.323 362.258C 226.262 362.327 227.264 362.595 228.289 363.107C 229.364 363.665 230.341 364.316 231.305 365.153C 232.392 366.293 233.196 367.41 233.765 368.712C 234.357 369.921 234.58 371.328 234.519 372.793C 234.519 374.235 234.209 375.526 233.665 376.561C 233.134 377.631 232.318 378.7 231.305 379.817C 230.835 380.223 230.341 380.747 229.636 381.328C 228.919 382.177 228.413 382.642 228.066 383.026L 227.56 383.491L 225.891 385.317C 224.94 384.375 223.579 382.945 221.776 381.235C 220.106 379.41 219.093 378.468 218.834 378.177L 216.745 376.269L 213.693 373.468L 211.814 371.875L 214.237 369.456zM 229.143 379.503C 230.118 378.537 230.798 377.631 231.107 376.817C 231.515 375.875 231.602 374.921 231.378 373.898C 231.107 372.746 230.774 371.711 230.118 370.91C 229.636 369.956 228.919 369.142 228.066 368.305C 227.264 367.677 226.546 367.026 225.533 366.573C 224.519 366.072 223.592 365.851 222.691 365.804C 221.701 365.63 220.725 365.898 220.008 366.363C 219.216 366.781 218.439 367.41 217.647 368.223C 217.362 368.421 217.239 368.712 216.931 369.014C 216.67 369.305 216.423 369.583 216.264 369.828C 217.647 371.119 218.834 372.316 219.835 373.305C 220.836 374.235 222.022 375.445 223.394 376.828C 224.853 378.177 225.866 379.189 226.472 379.724L 227.684 380.956L 229.143 379.503z"/>
<path style="stroke:none; fill:#2c2c2b" d="M 249.77 364.188L 248.694 364.642C 248.41 364.816 248.052 365.153 247.682 365.421C 246.915 363.711 245.889 361.816 244.702 359.781C 243.466 357.63 242.329 355.595 241.193 353.583L 238.696 349.78L 237.979 348.618C 238.473 348.443 238.77 348.257 239.116 348.152C 239.475 347.92 239.821 347.652 240.191 347.35C 241.193 347.652 242.849 348.152 245.333 348.792C 247.682 349.536 249.991 350.141 252.155 350.885C 254.392 351.431 256.233 352.06 257.594 352.513L 254.392 347.118L 252.686 344.443C 252.588 344.176 252.304 343.698 251.81 343.048C 251.439 342.408 250.981 341.931 250.833 341.606L 250.499 341.141C 250.833 341.105 250.981 341.036 251.253 340.908C 251.489 340.78 251.563 340.734 251.637 340.652C 251.81 340.582 252.019 340.455 252.155 340.327C 252.452 340.106 252.661 339.966 252.686 339.896L 253.466 341.291C 253.676 341.606 254.022 342.187 254.392 342.919C 254.751 343.698 254.999 344.176 255.208 344.443C 255.616 345.152 256.073 345.897 256.481 346.897C 257.063 347.827 257.371 348.606 257.792 349.094L 259.286 351.49L 262.327 356.723L 262.106 356.827C 261.882 356.873 261.549 356.99 261.363 357.153C 261.042 357.362 260.807 357.525 260.448 357.874C 258.385 357.153 256.79 356.571 255.542 356.223C 254.293 355.885 253.082 355.443 251.81 355.095C 250.636 354.676 249.041 354.223 247.064 353.723L 242.787 352.513L 244.653 355.781L 246.026 358.014C 246.284 358.513 246.915 359.56 247.829 360.909C 248.868 362.258 249.448 363.363 249.931 364.095L 249.77 364.188z"/>
<path style="stroke:none; fill:#2c2c2b" d="M 265.343 355.641L 265.652 350.315C 265.788 347.652 265.837 344.943 265.999 342.408C 266.06 339.966 266.159 337.315 266.159 334.78C 266.319 334.757 266.518 334.675 266.765 334.675C 266.913 334.582 267.086 334.582 267.222 334.582C 267.518 334.408 267.593 334.384 267.766 334.256C 267.864 334.21 268 334.14 268.149 334.012L 268.532 334.384C 270.077 336.14 271.486 337.884 273.105 339.71C 274.675 341.396 275.96 342.919 277.159 344.176C 278.383 345.524 279.976 347.245 281.893 349.211L 282.14 349.443L 282.14 349.78C 281.893 349.838 281.349 350.013 280.855 350.141C 280.249 350.315 279.976 350.315 279.976 350.374C 279.607 350.536 279.347 350.618 279.137 350.687C 278.852 350.827 278.395 350.989 277.691 351.362C 276.801 350.141 276.109 349.211 275.64 348.618C 275.181 348.106 274.601 347.35 273.797 346.641L 270.893 347.618L 267.716 348.792L 267.716 349.211C 267.766 350.513 267.766 351.49 267.766 352.513C 267.839 353.409 267.839 354.153 267.864 354.874C 267.518 355.013 267.222 355.013 266.974 355.095C 266.862 355.141 266.765 355.211 266.579 355.234C 266.208 355.281 265.788 355.595 265.343 355.781L 265.343 355.641zM 267.839 346.99L 272.636 345.152C 271.251 343.49 269.706 341.675 268 339.85C 268 341.105 267.864 342.245 267.864 343.28C 267.839 344.408 267.839 345.524 267.839 346.699L 267.839 346.99z"/>
<path style="stroke:none; fill:#2c2c2b" d="M 300.222 344.443L 299.864 346.897C 299.072 347.443 298.294 347.827 297.429 348.152C 296.378 348.443 295.5 348.618 294.499 348.792C 293.635 348.92 292.968 348.966 292.621 348.966C 292.312 348.92 291.756 348.862 291.088 348.862C 290.334 348.792 289.766 348.618 289.049 348.443C 288.542 348.257 287.998 348.106 287.579 347.827C 287.133 347.652 286.713 347.35 286.378 347.024C 285.935 346.757 285.464 346.397 284.982 345.85C 284.451 345.152 283.994 344.524 283.599 343.698C 283.203 342.745 282.845 341.861 282.745 340.734C 282.585 339.036 282.61 337.477 282.845 336.14C 283.203 334.85 283.994 333.663 284.909 332.617C 285.848 331.419 287.011 330.559 288.295 329.954C 289.655 329.442 291.175 328.977 292.621 328.826C 293.635 328.826 294.673 328.826 295.661 328.826C 296.675 328.895 297.552 329.175 298.565 329.5C 298.48 329.826 298.48 330.396 298.294 330.896C 298.294 331.419 298.294 331.989 298.183 332.501L 297.811 332.501C 297.206 331.756 296.452 331.28 295.599 330.942C 294.673 330.559 293.782 330.465 292.868 330.559C 290.693 330.896 289.234 331.837 288.196 333.663C 287.356 335.512 287.133 337.477 287.356 339.757C 287.528 340.838 287.727 341.897 288.122 342.85C 288.542 343.791 289.049 344.606 289.655 345.28C 290.334 345.897 291.199 346.466 292.189 346.757C 293.128 347.024 294.079 347.245 295.03 347.024C 295.934 346.99 296.775 346.699 297.552 346.222C 298.565 345.687 299.258 345.082 299.864 344.408L 300.222 344.443z"/>
<path style="stroke:none; fill:#2c2c2b" d="M 309.491 332.536C 309.491 333.233 309.356 334.012 309.294 335.268C 309.084 336.478 308.997 337.408 308.997 338.059C 308.997 338.733 308.923 339.71 308.923 340.919C 308.923 342.245 308.874 343.222 308.849 343.85C 308.849 344.269 308.849 344.92 308.849 345.897C 308.849 346.862 308.849 347.652 308.849 348.106C 308.491 348.106 308.058 347.978 307.489 347.943C 306.983 347.92 306.661 347.827 306.661 347.827C 305.944 347.769 304.981 347.769 304.115 347.827C 304.115 346.757 304.325 345.036 304.498 342.582C 304.832 340.047 304.981 338.408 304.981 337.477L 305.066 336.013L 305.278 332.314C 305.314 331.756 305.314 331.28 305.314 330.733C 305.314 330.256 305.314 329.512 305.278 328.535C 305.524 328.535 305.993 328.535 306.6 328.628C 307.118 328.826 307.439 328.826 307.489 328.826C 307.923 328.826 308.329 328.826 308.849 328.826C 309.431 328.826 309.714 328.826 309.925 328.826C 309.925 329.233 309.802 329.791 309.677 330.64C 309.566 331.582 309.491 332.152 309.491 332.536z"/>
<path style="stroke:none; fill:#2c2c2b" d="M 330.64 348.618C 329.44 349.443 328.167 349.943 326.845 350.141C 325.548 350.315 324.04 350.315 322.531 350.141C 321.147 349.909 319.737 349.397 318.453 348.792C 317.267 348.152 316.142 347.28 315.412 346.129C 314.534 345.082 314.077 343.85 313.83 342.652C 313.533 341.396 313.533 339.966 313.83 338.501C 314.077 337.024 314.534 335.733 315.301 334.582C 316.067 333.395 317.068 332.314 318.28 331.71C 319.453 330.896 320.813 330.465 322.196 330.186C 323.569 329.954 324.867 329.954 326.413 330.256C 327.599 330.465 328.81 330.733 329.835 331.244C 330.824 331.71 331.802 332.28 332.505 332.966C 333.31 333.745 333.804 334.384 334.199 335.024C 334.607 335.652 334.866 336.442 335.04 337.187C 335.237 337.955 335.273 338.768 335.273 339.489C 335.347 340.199 335.273 340.919 335.126 341.722C 334.965 343.222 334.408 344.443 333.667 345.757C 332.926 346.99 331.862 347.92 330.64 348.618zM 328.501 346.013C 329.132 345.315 329.489 344.443 329.835 343.524C 330.206 342.652 330.441 341.606 330.64 340.489C 330.997 338.408 330.824 336.478 329.997 334.85C 329.267 333.233 327.956 332.093 325.991 331.756C 325.311 331.756 324.757 331.71 324.225 331.756C 323.755 331.756 323.248 331.989 322.346 332.501C 321.679 332.78 320.936 333.395 320.392 334.21C 319.811 335.024 319.417 335.931 319.096 336.943C 318.773 337.884 318.453 338.943 318.316 340.047C 317.958 342.105 318.156 343.943 318.897 345.606C 319.664 347.245 320.936 348.152 322.939 348.443C 324.04 348.618 325.077 348.606 325.991 348.152C 326.907 347.676 327.735 347.013 328.501 346.013z"/>
<path style="stroke:none; fill:#2c2c2b" d="M 339.253 353.583L 338.302 353.013C 337.956 352.804 337.56 352.711 337.078 352.583C 338.08 350.955 339.118 349.094 340.267 346.99C 341.454 344.815 342.442 342.687 343.53 340.734L 345.495 336.501L 346.076 335.35C 346.435 335.652 346.731 335.931 347.077 336.024C 347.484 336.163 347.795 336.338 348.338 336.442C 348.61 337.408 349.08 339.106 349.846 341.524C 350.599 343.85 351.255 346.129 351.886 348.385C 352.541 350.536 353.011 352.338 353.505 353.828L 356.249 348.152L 357.596 345.385C 357.719 345.036 357.978 344.443 358.276 343.791C 358.56 343.048 358.732 342.582 358.943 342.187L 359.128 341.675C 359.425 341.861 359.636 341.989 359.82 342.187C 360.006 342.199 360.142 342.303 360.229 342.385C 360.352 342.408 360.575 342.408 360.871 342.652C 361.155 342.687 361.315 342.745 361.514 342.85L 360.686 344.176C 360.525 344.524 360.142 345.118 359.746 345.897C 359.376 346.641 359.066 347.024 358.943 347.35C 358.56 348.152 358.077 348.966 357.596 349.838C 357.089 350.687 356.729 351.431 356.372 352.06L 355.147 354.618L 352.466 359.979L 352.194 359.781C 351.997 359.63 351.774 359.56 351.539 359.386C 351.218 359.235 350.822 359.084 350.464 358.967C 349.895 356.873 349.524 355.234 349.13 354.048C 348.696 352.804 348.436 351.49 348.141 350.315C 347.757 349.094 347.263 347.524 346.731 345.606L 345.31 341.466L 343.605 344.815L 342.442 347.071C 342.194 347.652 341.664 348.618 340.946 350.199C 340.379 351.769 339.785 352.92 339.476 353.723L 339.253 353.583z"/>
<path style="stroke:none; fill:#2c2c2b" d="M 355.655 360.734L 360.229 358.234C 362.724 356.862 364.9 355.595 367.087 354.223C 369.238 352.955 371.513 351.595 373.737 350.141C 373.848 350.281 373.984 350.374 374.171 350.536C 374.354 350.687 374.404 350.885 374.479 350.885C 374.725 351.025 374.862 351.153 374.998 351.153C 375.071 351.315 375.344 351.362 375.505 351.431L 375.344 351.967C 374.64 354.153 373.984 356.431 373.38 358.618C 372.81 360.734 372.218 362.7 371.759 364.479C 371.278 366.211 370.771 368.305 370.005 371.06L 370.005 371.398L 369.782 371.677C 369.511 371.398 369.14 371.06 368.681 370.723C 368.286 370.363 367.952 370.165 367.952 370.165C 367.694 369.897 367.532 369.747 367.298 369.583C 367.026 369.478 366.581 369.142 365.95 368.84C 366.557 367.317 366.878 366.363 367.087 365.63C 367.397 364.967 367.632 364.025 367.952 363.06L 365.505 361.072L 362.724 359.084L 362.355 359.362C 361.315 359.979 360.352 360.676 359.636 361.188C 358.844 361.653 358.201 362.119 357.62 362.595C 357.386 362.258 357.089 361.979 357.002 361.956C 356.853 361.805 356.729 361.746 356.729 361.653C 356.372 361.479 356.013 361.188 355.494 360.978L 355.655 360.734zM 364.331 358.234L 368.472 361.258C 369.064 359.13 369.782 356.873 370.399 354.502C 369.399 355.141 368.41 355.711 367.397 356.223C 366.557 356.827 365.53 357.409 364.541 358.014L 364.331 358.234z"/>
<path style="stroke:none; fill:#2c2c2b" d="M 385.331 359.432C 385.54 359.63 385.825 359.979 386.183 360.409C 386.555 360.804 386.827 361.072 386.863 361.188C 387.049 361.304 387.432 361.653 387.826 361.979C 388.296 362.327 388.593 362.595 388.593 362.595C 388.296 363.06 387.579 363.665 386.678 364.479C 385.714 365.374 385.182 365.898 384.923 366.211L 382.55 368.491L 378.805 372.316L 376.382 374.921L 377.458 376.026C 378.137 376.561 378.805 377.096 379.46 377.724C 380.311 378.328 380.845 378.806 381.276 379.154C 380.931 379.339 380.622 379.643 380.311 379.933C 380.127 380.003 380.053 380.223 379.954 380.305C 379.905 380.421 379.757 380.584 379.46 380.899L 376.233 377.492C 375.728 377.084 375.344 376.561 374.862 376.154C 374.354 375.689 373.972 375.317 373.38 374.874L 371.636 373.339C 372.514 372.421 373.848 371.177 375.505 369.583C 377.173 368.036 378.038 367.107 378.261 366.92L 380.622 364.479C 381.128 364.025 381.857 363.13 382.834 362.188C 383.686 361.188 384.391 360.374 384.923 359.897L 385.331 359.432z"/>
<path style="stroke:none; fill:#2c2c2b" d="M 404.834 382.642L 406.453 385.014C 406.638 385.317 406.911 385.689 407.195 386.352C 407.591 386.98 407.849 387.375 407.911 387.678C 408.566 388.735 408.813 389.411 409.024 389.805C 409.197 390.05 409.197 390.596 409.321 391.329C 409.431 392.097 409.518 392.631 409.431 393.014C 409.431 393.492 409.321 394.178 409.024 394.957C 408.678 395.841 408.195 396.701 407.392 397.597C 406.638 398.481 405.736 399.282 404.698 399.888C 403.339 400.806 401.941 401.213 400.546 401.458C 399.235 401.62 397.826 401.585 396.343 401.108C 394.983 400.632 393.784 400.074 392.932 399.282C 391.968 398.481 391.202 397.433 390.386 396.12C 390.139 395.748 389.804 395.108 389.273 394.19C 388.692 393.318 388.384 392.631 388.05 392.202L 387.727 391.584L 386.405 389.504C 387.579 388.829 389.273 387.876 391.461 386.654C 393.673 385.492 394.872 384.806 395.058 384.7L 397.665 383.131L 401.052 380.956L 403.19 379.503L 404.834 382.642zM 391.202 394.19C 391.806 395.365 392.61 396.224 393.327 396.828C 394.118 397.375 395.058 397.655 396.207 397.806C 397.282 397.806 398.382 397.655 399.434 397.375C 400.359 397.073 401.299 396.655 402.325 396.038C 403.239 395.446 404.104 394.807 404.772 394.016C 405.538 393.318 405.972 392.445 406.317 391.584C 406.638 390.596 406.676 389.805 406.366 388.887C 406.206 387.945 405.736 387.038 405.181 386.026C 405.007 385.886 404.834 385.572 404.673 385.212C 404.303 384.887 404.167 384.573 404.081 384.41C 402.325 385.398 400.929 386.236 399.718 386.934C 398.518 387.643 397.011 388.422 395.354 389.468C 393.513 390.41 392.425 391.085 391.646 391.584L 390.188 392.445L 391.202 394.19z"/>
<path style="stroke:none; fill:#2c2c2b" d="M 415.278 401.923C 415.463 402.388 415.686 403.097 416.019 404.05C 416.229 405.027 416.501 405.725 416.649 406.249C 417.046 407.015 417.477 408.167 417.997 409.585C 418.577 411.016 418.874 411.831 418.973 412.038C 418.627 412.144 418.244 412.284 417.726 412.493C 417.651 412.516 417.477 412.516 417.317 412.55C 417.193 412.644 417.119 412.748 417.046 412.748L 416.649 412.958C 416.402 412.284 416.032 411.307 415.784 409.888C 415.364 408.446 415.006 407.516 414.808 406.888L 412.002 407.795L 409.024 408.807L 411.472 414.829C 411.136 414.829 410.815 414.829 410.557 414.829C 410.433 414.876 410.186 414.993 410.161 414.993C 409.914 415.144 409.679 415.191 409.53 415.307C 409.431 415.366 409.321 415.493 409.197 415.493C 409.024 414.993 408.678 414.203 408.406 413.26C 408.048 412.144 407.849 411.307 407.591 410.737L 407.182 409.562L 403.746 410.69L 400.359 411.877C 401.052 413.877 401.941 415.784 402.968 417.819C 402.572 417.877 402.102 418.028 401.757 418.214C 401.608 418.214 401.435 418.33 401.237 418.389C 401.225 418.457 400.966 418.563 400.929 418.563L 400.743 418.69C 400.546 418.214 400.249 417.4 399.865 416.307C 399.568 415.307 399.284 414.389 399.099 413.899L 397.876 410.807L 396.837 408.446L 398.518 408.074L 403.512 406.342L 407.591 404.864L 410.767 403.702C 411.472 403.551 412.274 403.19 413.375 402.736C 414.4 402.295 414.907 402.085 414.907 402.085L 415.278 401.923z"/>
<path style="stroke:none; fill:#2c2c2b" d="M 411.261 433.575L 412.584 432.61C 412.645 432.587 412.768 432.529 412.768 432.401C 412.645 432.331 412.645 432.226 412.584 432.331L 407.591 432.97L 406.824 433.041C 406.366 433.156 405.81 433.156 405.168 433.342C 404.413 433.552 403.981 433.575 403.784 433.645C 403.746 433.342 403.746 432.97 403.746 432.366C 403.635 431.853 403.635 431.552 403.635 431.342C 403.635 431.121 403.512 430.68 403.413 430.145C 403.339 429.598 403.239 429.226 403.19 429.202L 403.746 429.063L 405.663 428.959C 406.528 428.866 407.591 428.83 409.024 428.691C 410.271 428.529 411.052 428.424 411.261 428.424L 416.402 427.807C 417.132 427.749 418.244 427.563 419.591 427.238C 421.087 427.098 422.101 426.994 422.644 426.83L 422.768 428.83C 422.917 429.47 422.952 430.145 423.102 430.761C 423.213 431.424 423.274 432.098 423.386 432.808C 423.584 434.052 423.596 434.948 423.596 435.517C 423.719 436.168 423.584 436.82 423.249 437.599C 422.917 438.273 422.496 438.889 421.889 439.389C 421.235 439.889 420.518 440.133 419.517 440.145C 418.145 440.471 417.046 440.133 416.032 439.528C 415.006 438.843 414.314 437.843 413.845 436.61C 412.645 437.424 411.335 438.517 409.679 439.796C 408.195 441.11 407.059 441.959 406.552 442.412L 404.981 443.656C 404.981 443.239 404.97 442.843 404.97 442.122C 404.834 441.575 404.834 441.227 404.834 441.11C 404.698 440.344 404.673 439.564 404.327 438.645L 409.84 434.633L 411.261 433.575zM 418.244 431.703L 416.019 431.925L 413.931 432.215C 413.931 432.331 413.931 432.587 414.018 432.877C 414.29 435.261 415.884 436.319 418.577 436.052C 418.973 435.971 419.517 435.843 420.197 435.517C 420.915 435.388 421.235 434.948 421.458 434.412C 421.78 433.785 421.78 433.041 421.717 431.993L 421.557 431.342L 418.244 431.703z"/>
<path style="stroke:none; fill:#2c2c2b" d="M 405.972 463.39C 405.168 462.204 404.5 461.042 404.167 459.774C 403.784 458.506 403.635 457.053 403.746 455.472C 403.784 454.076 404.167 452.658 404.698 451.309C 405.181 450.04 405.946 448.936 406.984 448.018C 407.911 447.156 409.197 446.518 410.409 446.146C 411.644 445.866 412.941 445.634 414.487 445.704C 416.019 445.866 417.379 446.146 418.627 446.738C 419.913 447.355 421.013 448.273 421.889 449.367C 422.768 450.552 423.386 451.74 423.768 453.053C 424.079 454.378 424.239 455.797 424.128 457.309C 424.079 458.506 423.892 459.658 423.584 460.763C 423.102 461.786 422.644 462.67 421.952 463.554C 421.334 464.332 420.741 464.972 420.197 465.437C 419.517 465.855 418.874 466.123 418.096 466.496C 417.317 466.751 416.551 466.867 415.884 466.937C 415.006 467.1 414.29 467.204 413.51 467.1C 412.002 466.937 410.557 466.635 409.321 465.984C 408.048 465.356 406.984 464.542 405.972 463.39zM 408.516 460.914C 409.321 461.461 410.161 461.786 411.136 462.007C 412.064 462.204 413.152 462.438 414.239 462.438C 416.353 462.565 418.244 462.193 419.876 461.216C 421.458 460.344 422.384 459.006 422.558 457.053C 422.558 456.355 422.558 455.669 422.384 455.25C 422.335 454.878 422.052 454.262 421.458 453.541C 421.05 452.785 420.394 452.216 419.517 451.74C 418.627 451.262 417.726 450.971 416.649 450.739C 415.611 450.53 414.598 450.355 413.425 450.355C 411.335 450.18 409.518 450.658 407.849 451.472C 406.366 452.355 405.55 453.797 405.365 455.797C 405.365 456.867 405.624 457.89 406.169 458.728C 406.676 459.483 407.392 460.332 408.516 460.914z"/>
<path style="stroke:none; fill:#2c2c2b" d="M 414.746 482.403C 415.611 482.333 416.267 482.066 416.86 481.682C 417.477 481.263 417.726 480.693 417.997 479.856C 418.145 479.437 418.244 479.019 418.244 478.566C 418.244 478.345 418.096 477.938 417.825 477.391C 417.552 476.752 417.046 476.485 416.229 476.159C 415.463 476.007 414.4 476.356 413.425 477.229C 412.447 478.135 411.472 479.229 410.347 480.263C 409.321 481.263 408.332 481.868 407.714 481.949C 406.984 482.077 406.453 482.077 405.946 482.066C 405.538 481.949 405.007 481.868 404.698 481.787C 404.253 481.717 403.784 481.542 403.413 481.194C 402.968 480.996 402.572 480.624 402.078 480.263C 401.708 479.856 401.299 479.437 400.966 478.833C 400.743 478.31 400.546 477.601 400.373 476.914C 400.26 476.159 400.26 475.519 400.359 474.938C 400.359 474.356 400.546 473.658 400.743 473.007C 400.966 472.181 401.237 471.484 401.757 470.74C 402.078 469.995 402.572 469.461 403.19 468.96C 403.981 469.461 404.562 469.728 404.97 469.995C 405.315 470.263 405.81 470.414 406.366 470.74L 406.267 471.217C 405.315 471.193 404.327 471.356 403.746 471.891C 402.968 472.438 402.474 473.123 402.312 474.112C 402.04 475.077 402.04 475.844 402.312 476.646C 402.572 477.275 403.19 477.798 404.104 478.054C 404.562 478.135 404.97 478.135 405.315 478.135C 405.663 478.054 406.107 477.938 406.528 477.635C 406.984 477.275 407.392 476.914 407.849 476.485C 408.195 476.042 408.678 475.635 409.024 475.298C 409.321 474.856 409.679 474.46 410.05 474.112C 410.409 473.914 410.767 473.658 411.052 473.368C 411.644 472.798 412.287 472.542 413.152 472.46C 414.018 472.333 414.858 472.438 415.735 472.635C 416.649 472.984 417.477 473.263 417.997 473.809C 418.627 474.356 419.146 475.019 419.419 475.914C 419.739 476.646 420.061 477.437 420.061 478.135C 420.061 478.833 419.876 479.635 419.591 480.507C 419.419 481.194 419.146 481.868 418.714 482.531C 418.442 483.124 417.91 483.67 417.379 484.182L 417.119 484.368C 416.649 484.077 416.267 483.868 415.97 483.612C 415.611 483.438 415.155 483.031 414.636 482.693L 414.746 482.403z"/>
<path style="stroke:none; fill:#2c2c2b" d="M 399.074 481.542L 402.411 485.531C 404.253 487.624 405.972 489.636 407.714 491.45C 409.431 493.298 411.175 495.124 413.028 497.078C 412.881 497.206 412.768 497.381 412.645 497.624C 412.584 497.718 412.447 497.938 412.447 497.985C 412.274 498.3 412.214 498.381 412.214 498.497C 412.2 498.648 412.064 498.833 412.064 498.962L 411.595 498.939C 409.321 498.833 406.911 498.497 404.673 498.381C 402.312 498.218 400.249 498.021 398.518 497.938C 396.714 497.718 394.476 497.649 391.608 497.485L 391.202 497.485L 390.93 497.381C 391.04 497.043 391.263 496.636 391.646 496.055C 391.968 495.578 392.177 495.381 392.177 495.241C 392.289 495.02 392.425 494.764 392.512 494.486C 392.61 494.357 392.784 493.834 393.03 493.125C 394.538 493.369 395.7 493.531 396.492 493.567C 397.208 493.776 398.099 493.834 399.124 493.834L 400.582 491.241L 402.078 488.135L 401.757 487.787C 400.854 486.857 400.051 486.113 399.434 485.426C 398.741 484.857 398.147 484.287 397.665 483.787C 397.876 483.438 398.061 483.183 398.147 483.031C 398.233 482.891 398.271 482.729 398.357 482.693C 398.518 482.357 398.716 481.868 398.741 481.427L 399.074 481.542zM 403.239 489.473L 400.966 494.043C 403.19 494.357 405.55 494.486 408.048 494.764C 407.195 493.776 406.528 492.857 405.736 492.078C 405.007 491.334 404.253 490.532 403.449 489.682L 403.239 489.473z"/>
<path style="stroke:none; fill:#2c2c2b" d="M 392.177 508.474L 393.673 508.683C 393.921 508.683 393.921 508.683 394.118 508.683C 394.118 508.544 394.118 508.474 393.921 508.474L 389.878 505.427L 389.273 505.009C 388.89 504.811 388.445 504.486 387.826 504.172C 387.333 503.753 386.9 503.52 386.827 503.45C 386.9 503.137 387.185 502.776 387.579 502.439C 387.913 501.962 388.173 501.753 388.296 501.637C 388.445 501.439 388.692 501.055 388.89 500.659C 389.273 500.206 389.347 499.892 389.434 499.822L 389.878 500.206L 391.263 501.381C 391.968 501.835 392.883 502.567 393.921 503.381C 394.983 504.229 395.626 504.601 395.774 504.811L 399.865 507.822C 400.546 508.322 401.299 508.963 402.572 509.707C 403.784 510.544 404.673 511.137 405.007 511.404L 403.784 513.021C 403.449 513.591 403.017 514.056 402.647 514.579C 402.312 515.206 401.794 515.672 401.435 516.242C 400.743 517.3 400.051 518.009 399.718 518.474C 399.284 518.94 398.716 519.195 398.024 519.578C 397.282 519.929 396.528 520.068 395.7 519.929C 394.983 519.87 394.192 519.578 393.327 518.998C 392.289 518.183 391.646 517.231 391.388 516.044C 391.202 514.859 391.375 513.707 391.968 512.427C 390.447 512.265 388.692 511.986 386.727 511.882C 384.688 511.73 383.291 511.66 382.55 511.567L 380.585 511.404C 380.845 511.137 381.128 510.777 381.56 510.335C 381.931 509.869 382.179 509.603 382.327 509.497C 382.748 508.905 383.218 508.207 383.686 507.358L 390.323 508.322L 392.177 508.474zM 398.518 511.939L 396.714 510.544L 395.058 509.299C 394.983 509.451 394.773 509.603 394.612 509.869C 393.154 511.858 393.476 513.603 395.7 515.206C 396.046 515.497 396.528 515.777 397.208 516.044C 397.876 516.416 398.493 516.416 399.074 516.125C 399.568 515.823 400.187 515.335 400.743 514.521L 401.225 513.904L 398.518 511.939z"/>
<path style="stroke:none; fill:#2c2c2b" d="M 387.049 527.335C 386.678 526.917 386.011 526.196 385.182 525.371C 384.28 524.463 383.686 523.754 383.218 523.335C 382.748 522.859 381.943 522.335 380.992 521.417C 379.966 520.533 379.249 519.789 378.805 519.451C 378.595 519.149 378.038 518.824 377.321 518.149C 376.518 517.532 375.962 516.986 375.628 516.567C 375.888 516.416 376.184 516.125 376.518 515.777C 376.939 515.428 377.247 515.206 377.247 515.16C 377.804 514.579 378.372 513.904 378.94 513.311C 379.757 513.963 380.931 515.253 382.661 517.067C 384.391 518.94 385.54 520.161 386.258 520.741L 387.333 521.823L 390.076 524.289C 390.386 524.696 390.781 524.987 391.139 525.371C 391.608 525.661 392.177 526.173 392.883 526.813C 392.746 527.01 392.289 527.335 391.968 527.65C 391.498 528.01 391.263 528.265 391.202 528.359C 390.93 528.58 390.657 528.94 390.323 529.312C 389.94 529.719 389.804 529.952 389.706 530.161C 389.347 529.719 388.89 529.312 388.384 528.661C 387.727 528.01 387.37 527.545 387.049 527.335z"/>
<path style="stroke:none; fill:#2c2c2b" d="M 360.142 532.173C 360.439 530.742 360.97 529.452 361.761 528.428C 362.453 527.254 363.553 526.266 364.727 525.371C 365.914 524.545 367.186 523.847 368.56 523.335C 369.894 522.963 371.278 522.766 372.601 522.963C 373.972 523.138 375.171 523.65 376.233 524.289C 377.321 525.01 378.372 525.998 379.249 527.232C 380.127 528.428 380.758 529.719 381.079 530.999C 381.374 532.429 381.462 533.777 381.128 535.219C 380.845 536.627 380.311 537.847 379.46 538.964C 378.755 540.01 377.729 540.988 376.456 541.964C 375.505 542.72 374.479 543.22 373.38 543.58C 372.464 544.045 371.278 544.324 370.226 544.324C 369.238 544.36 368.41 544.324 367.632 544.15C 366.964 543.964 366.161 543.58 365.505 543.185C 364.814 542.86 364.121 542.348 363.553 541.778C 363.17 541.429 362.538 540.824 362.119 540.174C 361.155 538.988 360.575 537.685 360.229 536.301C 359.932 534.894 359.82 533.533 360.142 532.173zM 363.553 532.429C 363.714 533.347 363.961 534.255 364.541 535.103C 364.9 536.057 365.505 536.906 366.161 537.812C 367.397 539.511 368.942 540.65 370.771 541.325C 372.464 541.964 374.009 541.662 375.628 540.452C 376.233 540.15 376.667 539.685 376.939 539.279C 377.247 538.988 377.458 538.464 377.729 537.522C 377.89 536.65 377.952 535.847 377.804 534.882C 377.606 533.905 377.247 533.021 376.741 532.033C 376.233 531.092 375.628 530.23 374.998 529.382C 373.737 527.754 372.266 526.534 370.598 525.917C 368.793 525.371 367.298 525.521 365.618 526.788C 364.727 527.475 364.121 528.265 363.8 529.207C 363.467 530.161 363.355 531.289 363.553 532.429z"/>
<path style="stroke:none; fill:#2c2c2b" d="M 295.747 441.901C 293.485 441.088 284.909 434.25 281.571 426.994C 279.051 421.459 276.899 417.248 278.927 411.609C 280.484 407.319 286.564 402.9 286.564 402.9C 286.564 402.9 288.295 401.108 289.049 399.666C 290.619 396.946 288.864 394.434 290.619 391.852C 291.199 390.864 292.621 389.666 292.621 389.666C 292.621 389.666 293.128 391.852 293.399 393.2C 293.845 396.084 293.226 397.888 294.252 400.503C 295.03 402.736 296.612 403.365 297.429 405.527C 298.653 408.609 298.565 410.667 298.071 413.899C 297.552 416.807 295.81 418.085 295.13 420.923C 294.647 423.435 294.413 425.005 294.499 427.563C 294.647 430.098 294.673 431.552 295.439 433.866C 296.366 436.61 298.813 440.133 298.813 440.133C 298.813 440.133 297.071 442.412 295.747 441.901z"/>
<path style="stroke:none; fill:#2c2c2b" d="M 295.439 388.62C 295.155 389.504 295.155 392.76 296.032 395.271C 296.206 395.748 296.452 396.503 296.452 396.503C 296.452 396.503 298.183 399.69 299.159 401.876C 300.013 403.423 300.507 404.353 301.051 406.004C 301.372 407.376 301.618 409.585 301.618 409.585L 301.372 414.829L 303.237 414.876L 303.633 413.527C 303.633 413.527 305.128 411.877 305.944 410.667C 306.538 409.272 306.747 408.575 306.983 407.062C 306.983 406.097 307.118 405.551 306.983 404.621C 306.6 402.295 304.943 401.585 303.633 399.515C 302.607 397.806 300.877 395.108 300.877 395.108L 298.714 391.852L 297.429 388.62C 297.429 388.62 297.429 386.863 296.675 386.688C 295.81 386.527 295.599 387.678 295.439 388.62z"/>
<path style="stroke:none; fill:#2c2c2b" d="M 298.307 435.388L 297.317 433.866L 296.675 431.925L 296.675 429.47L 297.552 429.47L 297.811 431.121L 298.307 432.877L 298.714 434.052L 299.345 434.948L 298.307 435.388z"/>
<path style="stroke:none; fill:#2c2c2b" d="M 304.474 370.91C 304.474 370.91 303.237 371.06 302.768 371.677C 301.902 372.793 301.755 373.618 301.051 374.874C 300.407 375.689 300.099 376.119 299.53 377.084C 298.714 378.828 298.48 380.003 298.48 382.177C 298.48 384.108 298.974 385.212 299.53 387.038C 300.407 389.875 301.446 391.329 303.089 393.818C 304.201 395.748 304.832 396.701 306.327 398.306C 306.983 399.004 307.612 399.34 308.329 400.166C 309.12 401.213 309.431 402.085 309.714 403.365C 310.369 405.551 310.196 406.993 309.714 409.26C 309.294 411.656 308.603 412.947 307.255 414.876C 305.61 417.552 303.237 417.877 301.742 420.621C 300.951 422.039 300.507 422.901 300.222 424.516C 300.013 425.692 299.864 426.354 299.864 427.563C 299.864 429.959 300.013 431.215 300.617 433.448C 301.618 436.726 303.237 438.273 305.524 440.97C 306.03 441.61 306.983 442.564 306.983 442.564L 309.925 442.564C 309.925 442.564 309.802 438.529 310.196 436.064C 310.628 433.575 310.913 432.215 312.038 430.052C 313.064 427.958 314.534 427.238 315.646 425.319C 317.267 422.47 317.661 420.702 318.156 417.552C 318.773 414.028 318.403 411.97 317.885 408.446C 317.439 406.271 317.068 405.097 316.45 402.9C 315.572 400.074 314.979 398.481 313.929 395.748C 312.792 392.574 312.199 390.748 310.876 387.805C 309.925 385.829 308.997 384.806 308.255 382.782C 307.489 381.154 307.255 380.223 306.983 378.537C 306.661 376.979 306.661 374.421 306.661 374.421L 305.944 371.468L 304.474 370.91z"/>
<path style="stroke:none; fill:#2c2c2b" d="M 312.842 442.564C 312.842 442.564 313.064 440.471 313.446 439.192C 314.077 437.47 314.794 436.68 315.646 435.18C 317.267 432.401 318.626 431.121 319.948 428.424C 321.864 424.61 322.741 422.179 323.248 418.028C 323.397 415.144 323.248 413.434 322.79 410.516C 322.63 408.807 322.073 406.342 322.073 406.342L 323.718 406.342C 323.718 406.342 326.77 411.877 327.239 415.831C 327.487 418.69 327.376 420.412 326.659 423.121C 325.991 425.958 325.226 427.563 323.619 430.052C 322.531 431.633 321.567 432.215 320.491 433.761C 319.565 434.948 319.096 435.738 318.316 436.982C 317.377 438.517 316.66 439.342 316.067 440.97C 315.931 441.727 315.646 442.669 315.646 442.669L 312.842 442.564z"/>
<path style="stroke:none; fill:#2c2c2b" d="M 320.491 443.656L 320.491 445.634C 317.155 446.552 312.458 447.156 307.192 447.156C 299.864 447.156 293.485 446.029 290.619 444.483L 290.619 442.855L 296.452 444.239L 303.485 445.203L 310.519 445.203L 317.958 444.285L 320.491 443.656z"/>
<path style="stroke:none; fill:#2c2c2b" d="M 324.757 446.518L 324.608 449.11C 320.542 450.18 314.534 450.971 308.009 450.971C 298.813 450.971 290.927 449.564 287.356 447.611L 287.356 445.541L 294.796 447.296L 303.485 448.425L 312.199 448.425L 321.53 447.529L 324.757 446.518z"/>
<path style="stroke:none; fill:#2c2c2b" d="M 327.821 450.53L 327.821 453.588C 322.79 454.995 315.301 456.413 307.439 456.413C 296.366 456.413 287.011 454.158 282.745 451.74L 283.475 449.041L 291.619 451.402L 302.163 452.785L 312.792 452.785L 324.04 451.634L 327.821 450.53z"/>
<path style="stroke:none; fill:#2c2c2b" d="M 330.206 454.53L 341.219 457.169C 331.393 462.971 325.201 462.565 308.997 462.925C 290.248 463.17 280.125 459.658 274.241 456.413L 281.077 453.541C 281.077 453.541 285.774 455.472 288.962 456.413C 294.129 457.89 297.317 457.89 302.768 458.274C 308.329 458.588 311.493 458.809 317.068 458.053C 320.542 457.646 322.63 457.309 325.942 456.274C 327.599 455.669 330.206 454.53 330.206 454.53z"/>
<path style="stroke:none; fill:#2c2c2b" d="M 272.56 457.471L 284.464 463.17C 286.02 463.17 287.307 464.367 287.307 465.984L 287.528 487.787C 287.528 489.333 286.193 490.625 284.649 490.625L 273.499 485.065C 271.919 485.065 270.745 483.787 270.745 482.333L 269.706 460.227C 269.706 458.728 271.053 457.471 272.56 457.471z"/>
<path style="stroke:none; fill:#2c2c2b" d="M 304.325 492.148L 292.621 492.148C 291.088 492.148 289.827 490.926 289.827 489.333L 289.827 467.635C 289.827 466.123 291.088 464.879 292.621 464.879L 306.501 464.879C 306.501 464.879 305.524 466.019 305.066 466.867C 304.498 467.88 304.474 468.484 304.115 469.461C 303.745 471.089 304.498 472.263 303.893 473.658C 303.237 474.752 302.224 474.938 301.544 476.007C 300.617 476.949 300.222 477.635 299.678 478.868C 299.258 480.275 299.258 481.194 299.345 482.693C 299.345 484.287 299.431 485.229 300.147 486.693C 300.617 487.961 301.273 488.531 302.163 489.717C 302.88 490.787 303.745 490.926 304.325 492.148z"/>
<path style="stroke:none; fill:#2c2c2b" d="M 315.709 492.206L 327.376 492.206C 328.946 492.206 330.206 490.926 330.206 489.473L 330.206 467.716C 330.206 466.123 328.946 464.925 327.376 464.925L 313.533 464.925C 313.533 464.925 314.497 466.123 314.93 466.867C 315.425 467.88 315.646 468.484 315.931 469.6C 316.142 471.193 315.425 472.263 316.142 473.728C 316.723 474.832 317.821 475.077 318.515 476.007C 319.392 477.112 319.811 477.729 320.257 479.019C 320.801 480.403 320.801 481.263 320.665 482.729C 320.665 484.368 320.542 485.287 319.948 486.693C 319.392 488.101 318.773 488.613 317.945 489.741C 317.155 490.787 316.29 491.101 315.709 492.206z"/>
<path style="stroke:none; fill:#2c2c2b" d="M 306.835 474.46C 306.03 471.217 306.476 467.635 310.073 467.53C 313.756 467.344 314.386 471.217 313.583 474.46C 312.718 478.531 312.075 480.624 310.196 480.624C 308.329 480.624 307.439 477.53 306.835 474.46z"/>
<path style="stroke:none; fill:#2c2c2b" d="M 308.329 483.566L 310.95 483.566C 311.853 483.566 312.446 483.973 312.446 484.473C 312.446 485.065 311.853 485.531 310.95 485.531L 308.329 485.531C 307.489 485.531 306.983 485.065 306.983 484.473C 306.983 483.973 307.489 483.566 308.329 483.566z"/>
<path style="stroke:none; fill:#2c2c2b" d="M 305.314 479.437C 304.474 480.275 303.893 481.717 303.893 483.124C 303.893 486.171 306.327 488.613 309.431 488.613C 312.458 488.613 314.93 486.171 314.93 483.124C 314.93 482.671 314.794 482.193 314.794 481.868L 316.142 481.682C 316.29 482.124 316.389 482.671 316.389 483.183C 316.389 487.124 313.262 490.288 309.356 490.288C 305.487 490.288 302.224 487.124 302.224 483.183C 302.224 481.415 303.064 479.728 304.201 478.507L 305.314 479.437z"/>
<path style="stroke:none; fill:#2c2c2b" d="M 334.607 464.262L 340.453 460.227C 342.194 459.263 343.345 460.902 343.345 462.438L 343.345 482.693C 343.345 484.287 342.678 484.879 340.835 486.02L 335.891 490.032C 334.335 490.032 333.038 488.752 333.038 487.229L 333.038 468.216C 333.038 466.751 333.038 465.216 334.607 464.262z"/>
<path style="stroke:none; fill:#2c2c2b" d="M 348.98 467.204L 349.895 467.204C 350.687 467.204 351.341 467.88 351.341 468.507L 351.341 478.868C 351.341 479.694 350.687 480.275 349.895 480.275L 348.98 480.275C 348.141 480.275 347.597 479.694 347.597 478.868L 347.597 468.507C 347.597 467.88 348.141 467.204 348.98 467.204z"/>
<path style="stroke:none; fill:#2c2c2b" d="M 354.123 466.298C 354.727 466.298 355.235 466.867 355.235 467.635L 355.235 470.414C 355.235 471.217 354.727 471.786 354.123 471.786C 353.579 471.786 353.011 471.217 353.011 470.414L 353.011 467.635C 353.011 466.867 353.579 466.298 354.123 466.298z"/>
<path style="stroke:none; fill:#2c2c2b" d="M 347.077 462.565L 350.118 462.565C 350.822 462.565 351.477 463.17 351.477 463.937L 351.477 464.123C 351.477 464.879 350.822 465.495 350.118 465.495L 347.077 465.495C 346.286 465.495 345.719 464.879 345.719 464.123L 345.719 463.937C 345.719 463.17 346.286 462.565 347.077 462.565z"/>
<path style="stroke:none; fill:#2c2c2b" d="M 263.774 465.554L 265.022 465.554C 265.837 465.554 266.518 466.123 266.518 466.867L 266.518 477.798C 266.518 478.531 265.837 479.229 265.022 479.229L 263.774 479.229C 262.847 479.229 262.315 478.531 262.315 477.798L 262.315 466.867C 262.315 466.123 262.847 465.554 263.774 465.554z"/>
<path style="stroke:none; fill:#2c2c2b" d="M 257.136 468.659C 257.371 469.03 257.594 469.356 258.039 469.6C 258.421 469.728 258.793 469.995 259.286 469.728C 259.694 469.6 259.694 469.251 259.943 468.81C 260.388 467.926 260.226 467.368 260.263 466.425C 260.3 465.728 260.053 465.286 260.374 464.565C 260.659 463.89 261.067 463.74 261.882 463.39C 262.761 462.925 263.452 463.076 264.54 462.949C 265.788 462.925 267.839 462.925 267.839 462.925C 267.839 462.925 267.518 462.193 267.172 461.786C 266.862 461.216 266.579 460.914 266.06 460.588C 265.343 460.088 264.96 460.088 264.095 459.948C 263.181 459.658 262.476 459.774 261.462 459.948C 260.807 460.088 260.374 460.088 259.694 460.518C 259.077 460.763 258.73 461.169 258.112 461.786C 257.792 462.309 257.569 462.565 257.21 463.123C 256.878 463.937 257.063 464.542 256.927 465.356C 256.878 466.019 256.79 466.496 256.878 467.204C 256.878 467.774 256.79 468.1 257.136 468.659z"/>
<path style="stroke:none; fill:#2c2c2b" d="M 274.241 490.31L 274.601 488.461L 289.234 495.02L 332.69 495.241L 338.463 491.241L 338.797 493.066L 332.926 497.287L 288.987 497.183L 274.241 490.31z"/>
<path style="stroke:none; fill:#2c2c2b" d="M 261.882 496.055L 278.383 505.823C 280.089 505.823 281.263 508.068 281.263 509.091L 281.571 522.079C 281.571 523.138 280.125 523.847 278.395 523.847L 261.882 512.137C 260.226 512.137 259.583 510.672 259.583 509.707L 259.189 498.497C 259.189 497.52 260.115 496.055 261.882 496.055z"/>
<path style="stroke:none; fill:#2c2c2b" d="M 284.797 507.822L 336.919 507.822C 337.685 507.822 338.302 508.474 338.302 509.265L 338.302 524.335C 338.302 525.16 337.685 525.777 336.919 525.777L 284.797 525.777C 283.994 525.777 283.388 525.16 283.388 524.335L 283.388 509.265C 283.388 508.474 283.994 507.822 284.797 507.822z"/>
<path style="stroke:none; fill:#2c2c2b" d="M 342.282 505.823L 351.886 498.16C 352.676 498.16 353.307 498.753 353.307 499.543L 353.011 512.451C 353.011 513.231 352.392 513.904 351.662 513.904L 342.194 523.951C 341.393 523.951 340.762 523.335 340.762 522.626L 340.762 508.055C 340.762 507.184 340.946 506.533 342.282 505.823z"/>
<path style="stroke:none; fill:#2c2c2b" d="M 286.564 499.741L 335.237 499.741C 336.054 499.741 336.548 500.264 336.548 501.055L 336.548 503.869C 336.548 504.601 336.054 505.311 335.237 505.311L 286.564 505.311C 285.848 505.311 285.206 504.601 285.206 503.869L 285.206 501.055C 285.206 500.264 285.848 499.741 286.564 499.741z"/>
<path style="stroke:none; fill:#2c2c2b" d="M 333.667 499.392L 343.851 491.334C 344.408 490.926 345.408 491.124 345.792 491.845L 350.612 494.636C 351.132 495.287 350.822 496.101 350.167 496.567L 337.078 504.672C 336.399 505.113 335.46 504.951 335.101 504.3L 333.31 501.276C 332.864 500.718 333.013 499.788 333.667 499.392z"/>
<path style="stroke:none; fill:#2c2c2b" d="M 288.196 499.741L 269.545 489.857C 268.852 489.404 268 489.636 267.593 490.31L 262.761 493.206C 262.327 493.834 262.599 494.694 263.193 495.02L 285.663 505.172C 286.378 505.625 287.294 505.381 287.579 504.706L 289.581 501.753C 289.901 501.055 288.962 500.125 288.196 499.741z"/>
<path style="stroke:none; fill:#2c2c2b" d="M 254.441 403.585L 246.693 403.423L 243.614 410.516L 241.328 403.19L 233.616 402.457L 239.969 398.109L 238.251 390.596L 244.48 395.271L 251.019 391.247L 248.547 398.481L 254.441 403.585z"/>
</g>
</g>
</g>
</svg>